<?xml version="1.0" encoding="UTF-8" standalone="no"?>
<svg
   width="256"
   height="256"
   viewBox="0 0 64 64"
   version="1.1"
   id="micmute"
   xmlns="http://www.w3.org/2000/svg"
   xmlns:svg="http://www.w3.org/2000/svg">
  <defs
     id="clip">
    <clipPath
       id="clippath">
      <path
         d="M 0 0 L 59 0 L 0 59 z M 64 64 L 5 64 L 64 5 z" />
    </clipPath>
  </defs>
  <g
     fill="none"
     stroke="none">
    <path
       fill="white"
       d="m 32,9 c 4,0 4,4 4,4 v 20 c 0,0 0,4 -4,4 0,0 -4,0 -4,-4 V 13 c 0,0 0,-4 4,-4 z"
       id="main"
       clip-path="url(#clippath)"/>
    <path
       fill="white"
       d="m30,40 h4 v9 h-4z"
       id="arm" clip-path="url(#clippath)" />
    <path
       fill="white"
       d="M23,48 h18 c 0 0, 2 0, 2 2 c 0 0, 0 2, -2 2 h-18 c 0 0, -2 0, -2 -2 c 0 0, 0 -2, 2 -2 z"
       id="base" clip-path="url(#clippath)"/>
    <path
       fill="white"
       d="m 26,32 c 0,0 0,6 6,6 0,0 6,0 6,-6 h 3 c 0,0 0,9 -9,9 0,0 -9,0 -9,-9 z"
       id="stand"
       clip-path="url(#clippath)" />
   <path stroke="white" id="strikethrough" d="M45 19 L 19 45" stroke-width="4" stroke-linecap="round"/>
  </g>
</svg>
